{
  "accessors": [
    {
      "bufferView": 2,
      "componentType": 5126,
      "count": 17,
      "max": [
        0.000291000003926456,
        8.629690170288086,
        3.592729091644287
      ],
      "min": [
        -0.0002770000137388706,
        6.893299102783203,
        3.5921640396118164
      ],
      "type": "VEC3"
    },
    {
      "bufferView": 2,
      "byteOffset": 204,
      "componentType": 5126,
      "count": 17,
      "max": [
        0.9788839221000671,
        0.0007032870780676603,
        0.9915567636489868
      ],
      "min": [
        -0.9984866976737976,
        0.000132383473101072,
        -0.9513441324234009
      ],
      "type": "VEC3"
    },
    {
      "bufferView": 3,
      "componentType": 5126,
      "count": 17,
      "max": [
        1.9409686501603574e-05,
        1.0,
        0.00287183397449553,
        -1.0
      ],
      "min": [
        -2.6278280529368203e-06,
        -1.0,
        0.0001391230762237683,
        -1.0
      ],
      "type": "VEC4"
    },
    {
      "bufferView": 1,
      "componentType": 5126,
      "count": 17,
      "max": [
        0.2988309860229492,
        0.4923839867115021
      ],
      "min": [
        0.08250299841165543,
        0.27500998973846436
      ],
      "type": "VEC2"
    },
    {
      "bufferView": 0,
      "componentType": 5125,
      "count": 39,
      "type": "SCALAR"
    },
    {
      "bufferView": 2,
      "byteOffset": 408,
      "componentType": 5126,
      "count": 422,
      "max": [
        3.9031639099121094,
        13.09283447265625,
        7.456275939941406
      ],
      "min": [
        -4.032605171203613,
        -11.078004837036133,
        -0.66047602891922
      ],
      "type": "VEC3"
    },
    {
      "bufferView": 2,
      "byteOffset": 5472,
      "componentType": 5126,
      "count": 422,
      "max": [
        1.0,
        1.0,
        1.0
      ],
      "min": [
        -1.0,
        -1.0,
        -1.0
      ],
      "type": "VEC3"
    },
    {
      "bufferView": 3,
      "byteOffset": 272,
      "componentType": 5126,
      "count": 422,
      "max": [
        1.0,
        1.0,
        1.0,
        1.0
      ],
      "min": [
        -0.9945555329322815,
        -0.9469988942146301,
        -1.0,
        -1.0
      ],
      "type": "VEC4"
    },
    {
      "bufferView": 1,
      "byteOffset": 136,
      "componentType": 5126,
      "count": 422,
      "max": [
        0.9477949738502502,
        0.96247398853302
      ],
      "min": [
        0.04451100155711174,
        0.03963100165128708
      ],
      "type": "VEC2"
    },
    {
      "bufferView": 0,
      "byteOffset": 156,
      "componentType": 5125,
      "count": 1182,
      "type": "SCALAR"
    }
  ],
  "asset": {
    "extras": {
      "author": "FWTeastwood (https://sketchfab.com/FWTeastwood)",
      "license": "CC-BY-4.0 (http://creativecommons.org/licenses/by/4.0/)",
      "source": "https://sketchfab.com/3d-models/nuclear-bomb-983f0611b6c54a329b09f3383d26d18a",
      "title": "Nuclear Bomb"
    },
    "generator": "Sketchfab-12.67.0",
    "version": "2.0"
  },
  "bufferViews": [
    {
      "buffer": 0,
      "byteLength": 4884,
      "name": "floatBufferViews",
      "target": 34963
    },
    {
      "buffer": 0,
      "byteLength": 3512,
      "byteOffset": 4884,
      "byteStride": 8,
      "name": "floatBufferViews",
      "target": 34962
    },
    {
      "buffer": 0,
      "byteLength": 10536,
      "byteOffset": 8396,
      "byteStride": 12,
      "name": "floatBufferViews",
      "target": 34962
    },
    {
      "buffer": 0,
      "byteLength": 7024,
      "byteOffset": 18932,
      "byteStride": 16,
      "name": "floatBufferViews",
      "target": 34962
    }
  ],
  "buffers": [
    {
      "byteLength": 25956,
      "uri": "scene.bin"
    }
  ],
  "images": [
    {
      "uri": "textures/blinn1SG_baseColor.png"
    },
    {
      "uri": "textures/blinn1SG_metallicRoughness.png"
    },
    {
      "uri": "textures/blinn1SG_normal.png"
    }
  ],
  "materials": [
    {
      "doubleSided": true,
      "name": "blinn1SG",
      "normalTexture": {
        "index": 2
      },
      "pbrMetallicRoughness": {
        "baseColorTexture": {
          "index": 0
        },
        "metallicRoughnessTexture": {
          "index": 1
        }
      }
    }
  ],
  "meshes": [
    {
      "name": "Object_0",
      "primitives": [
        {
          "attributes": {
            "NORMAL": 1,
            "POSITION": 0,
            "TANGENT": 2,
            "TEXCOORD_0": 3
          },
          "indices": 4,
          "material": 0,
          "mode": 4
        }
      ]
    },
    {
      "name": "Object_1",
      "primitives": [
        {
          "attributes": {
            "NORMAL": 6,
            "POSITION": 5,
            "TANGENT": 7,
            "TEXCOORD_0": 8
          },
          "indices": 9,
          "material": 0,
          "mode": 4
        }
      ]
    }
  ],
  "nodes": [
    {
      "children": [
        1
      ],
      "matrix": [
        1.0,
        0.0,
        0.0,
        0.0,
        0.0,
        2.220446049250313e-16,
        -1.0,
        0.0,
        0.0,
        1.0,
        2.220446049250313e-16,
        0.0,
        0.0,
        0.0,
        0.0,
        1.0
      ],
      "name": "Sketchfab_model"
    },
    {
      "children": [
        2,
        3
      ],
      "name": "ee2deda453454ff3824a577167458d9b.obj.cleaner.materialmerger.gles"
    },
    {
      "mesh": 0,
      "name": "Object_2"
    },
    {
      "mesh": 1,
      "name": "Object_3"
    }
  ],
  "samplers": [
    {
      "magFilter": 9729,
      "minFilter": 9987,
      "wrapS": 10497,
      "wrapT": 10497
    }
  ],
  "scene": 0,
  "scenes": [
    {
      "name": "Sketchfab_Scene",
      "nodes": [
        0
      ]
    }
  ],
  "textures": [
    {
      "sampler": 0,
      "source": 0
    },
    {
      "sampler": 0,
      "source": 1
    },
    {
      "sampler": 0,
      "source": 2
    }
  ]
}
